<svg width="228" height="47" viewBox="0 0 228 47" fill="none" xmlns="http://www.w3.org/2000/svg">
<path d="M29.7006 28.3165L29.2388 28.1247L29.2374 28.1283L29.7006 28.3165ZM27.3665 31.915L27.7238 32.2647L27.7238 32.2647L27.3665 31.915ZM23.8004 34.3139L23.6061 33.8533L23.6035 33.8544L23.8004 34.3139ZM14.7556 34.2815L14.9484 33.8202L14.7556 34.2815ZM10.9951 31.8177L10.6415 32.1713L10.6452 32.1749L10.9951 31.8177ZM8.46641 28.0896L8.005 28.2824L8.00865 28.2907L8.46641 28.0896ZM8.46641 18.9151L8.00753 18.7165L8.00612 18.7198L8.46641 18.9151ZM10.9626 15.187L11.3162 15.5405L11.3162 15.5405L10.9626 15.187ZM14.7232 12.6907L14.916 13.1521L14.916 13.1521L14.7232 12.6907ZM28.5011 15.7057L28.8497 16.0642L29.1936 15.7298L28.8737 15.3723L28.5011 15.7057ZM26.167 17.975L25.7891 18.3024L26.1359 18.7025L26.5155 18.3335L26.167 17.975ZM23.0872 15.7381L22.8803 16.1934L22.8902 16.1976L23.0872 15.7381ZM16.0524 15.576L15.86 15.1144L15.8566 15.1159L16.0524 15.576ZM13.394 17.3914L13.0355 17.0429L13.0354 17.043L13.394 17.3914ZM11.6434 20.1146L11.1805 19.9256L11.1785 19.9306L11.6434 20.1146ZM11.6759 26.8901L11.2129 27.079L11.2143 27.0824L11.6759 26.8901ZM13.4265 29.6132L13.0629 29.9566L13.0679 29.9617L13.0729 29.9668L13.4265 29.6132ZM16.0848 31.4287L15.8807 31.8853L15.8925 31.8902L16.0848 31.4287ZM24.546 30.2616L24.8724 30.6404L24.8728 30.64L24.546 30.2616ZM27.0099 25.5933L27.5066 25.6504L27.5706 25.0933H27.0099V25.5933ZM19.4563 25.5933H18.9563V26.0933H19.4563V25.5933ZM19.4563 22.6108V22.1108H18.9563V22.6108H19.4563ZM30.5759 22.6108H31.0759V22.1108H30.5759V22.6108ZM30.0759 23.7779C30.0759 25.3374 29.7955 26.7846 29.2389 28.1247L30.1623 28.5083C30.7728 27.0388 31.0759 25.4603 31.0759 23.7779H30.0759ZM29.2374 28.1283C28.6987 29.4544 27.9556 30.5982 27.0091 31.5652L27.7238 32.2647C28.7657 31.2001 29.5787 29.945 30.1638 28.5047L29.2374 28.1283ZM27.0091 31.5652C26.064 32.5309 24.9316 33.2941 23.6061 33.8533L23.9948 34.7746C25.4356 34.1668 26.6806 33.3306 27.7238 32.2647L27.0091 31.5652ZM23.6035 33.8544C22.3081 34.4095 20.9059 34.6892 19.3915 34.6892V35.6892C21.0324 35.6892 22.5696 35.3854 23.9974 34.7735L23.6035 33.8544ZM19.3915 34.6892C17.812 34.6892 16.3325 34.3986 14.9484 33.8202L14.5628 34.7429C16.0748 35.3747 17.6859 35.6892 19.3915 35.6892V34.6892ZM14.9484 33.8202C13.5554 33.238 12.3561 32.451 11.3449 31.4605L10.6452 32.1749C11.7521 33.2592 13.0598 34.1147 14.5628 34.7429L14.9484 33.8202ZM11.3486 31.4642C10.3353 30.4508 9.52698 29.2603 8.92417 27.8884L8.00865 28.2907C8.65936 29.7716 9.53684 31.0666 10.6415 32.1713L11.3486 31.4642ZM8.92774 27.8968C8.34896 26.5118 8.05869 25.0431 8.05869 23.4861H7.05869C7.05869 25.171 7.37356 26.7712 8.00507 28.2824L8.92774 27.8968ZM8.05869 23.4861C8.05869 21.9291 8.34896 20.4722 8.9267 19.1104L8.00612 18.7198C7.37356 20.2109 7.05869 21.8013 7.05869 23.4861H8.05869ZM8.92527 19.1137C9.52891 17.7191 10.3266 16.5301 11.3162 15.5405L10.6091 14.8334C9.52387 15.9186 8.65743 17.215 8.00755 18.7165L8.92527 19.1137ZM11.3162 15.5405C12.327 14.5298 13.5251 13.7333 14.916 13.1521L14.5304 12.2294C13.0252 12.8584 11.7163 13.7262 10.6091 14.8334L11.3162 15.5405ZM14.916 13.1521C16.3001 12.5736 17.7796 12.283 19.3591 12.283V11.283C17.6535 11.283 16.0423 11.5975 14.5304 12.2294L14.916 13.1521ZM19.3591 12.283C21.0867 12.283 22.7155 12.6156 24.2503 13.2793L24.6472 12.3615C22.9834 11.642 21.2191 11.283 19.3591 11.283V12.283ZM24.2503 13.2793C25.7869 13.9438 27.0771 14.864 28.1285 16.0391L28.8737 15.3723C27.7206 14.0835 26.3093 13.0802 24.6472 12.3615L24.2503 13.2793ZM28.1526 15.3472L25.8184 17.6165L26.5155 18.3335L28.8497 16.0642L28.1526 15.3472ZM26.5448 17.6475C25.6512 16.6164 24.5623 15.8263 23.2842 15.2785L22.8902 16.1976C24.0327 16.6873 24.9969 17.3884 25.7891 18.3024L26.5448 17.6475ZM23.2941 15.2829C22.0409 14.7133 20.7277 14.4276 19.3591 14.4276V15.4276C20.5839 15.4276 21.7561 15.6823 22.8803 16.1933L23.2941 15.2829ZM19.3591 14.4276C18.1286 14.4276 16.9607 14.6558 15.8601 15.1144L16.2447 16.0375C17.2188 15.6316 18.2554 15.4276 19.3591 15.4276V14.4276ZM15.8566 15.1159C14.7808 15.5737 13.8391 16.2164 13.0355 17.0429L13.7525 17.74C14.4619 17.0104 15.2924 16.4428 16.2481 16.0361L15.8566 15.1159ZM13.0354 17.043C12.2523 17.8492 11.6349 18.8123 11.1805 19.9256L12.1064 20.3035C12.5164 19.2988 13.0662 18.4465 13.7527 17.7398L13.0354 17.043ZM11.1785 19.9306C10.7428 21.0313 10.5275 22.2182 10.5275 23.4861H11.5275C11.5275 22.3335 11.7228 21.2726 12.1083 20.2986L11.1785 19.9306ZM10.5275 23.4861C10.5275 24.7574 10.7548 25.9566 11.2129 27.079L12.1388 26.7011C11.7324 25.7055 11.5275 24.6354 11.5275 23.4861H10.5275ZM11.2143 27.0824C11.6687 28.1728 12.2845 29.1323 13.0629 29.9566L13.79 29.2699C13.0987 28.5381 12.5475 27.6822 12.1374 26.6978L11.2143 27.0824ZM13.0729 29.9668C13.8742 30.7681 14.8116 31.4074 15.8808 31.8852L16.2888 30.9722C15.3264 30.5422 14.4916 29.9712 13.78 29.2597L13.0729 29.9668ZM15.8925 31.8902C16.9943 32.3493 18.1731 32.5771 19.4239 32.5771V31.5771C18.2974 31.5771 17.2501 31.3726 16.2771 30.9671L15.8925 31.8902ZM19.4239 32.5771C21.5428 32.5771 23.3689 31.9357 24.8724 30.6404L24.2197 29.8828C22.9135 31.0081 21.3249 31.5771 19.4239 31.5771V32.5771ZM24.8728 30.64C26.3947 29.3257 27.2762 27.6548 27.5066 25.6504L26.5131 25.5362C26.3113 27.2925 25.5503 28.7337 24.2192 29.8832L24.8728 30.64ZM27.0099 25.0933H19.4563V26.0933H27.0099V25.0933ZM19.9563 25.5933V22.6108H18.9563V25.5933H19.9563ZM19.4563 23.1108H30.5759V22.1108H19.4563V23.1108ZM30.0759 22.6108V23.7779H31.0759V22.6108H30.0759ZM34.5971 33.7304L34.2784 34.1157L34.2784 34.1157L34.5971 33.7304ZM34.6943 26.4362L34.9932 26.8371L34.9978 26.8336L34.6943 26.4362ZM41.9237 25.334L41.8122 25.8216L41.8256 25.8243L41.9237 25.334ZM44.0957 25.9824L43.9075 26.4456L44.5957 26.7252V25.9824H44.0957ZM37.7093 21.0871L37.8365 21.5708L37.8483 21.5674L37.7093 21.0871ZM34.9537 22.1245L34.5053 22.3458L34.722 22.7851L35.1657 22.5774L34.9537 22.1245ZM33.7542 19.6931L33.5401 19.2413L33.081 19.4588L33.3058 19.9144L33.7542 19.6931ZM37.2554 18.4288L37.3699 18.9156L37.3789 18.9133L37.2554 18.4288ZM45.4897 19.5635L45.1575 19.9372L45.1649 19.9436L45.4897 19.5635ZM47.2728 34.8326V35.3326H47.7728V34.8326H47.2728ZM44.0957 34.8326H43.5957V35.3326H44.0957V34.8326ZM44.0957 33.4062H44.5957V32.3707L43.7848 33.0147L44.0957 33.4062ZM37.0285 31.9798L36.7305 32.3814L36.7367 32.3858L37.0285 31.9798ZM42.1182 32.3364L41.9518 31.8649L41.9518 31.8649L42.1182 32.3364ZM44.0957 31.1693L44.4279 31.543L44.5957 31.3939V31.1693H44.0957ZM44.0957 28.3165H44.5957V28.0213L44.3373 27.8787L44.0957 28.3165ZM42.1182 27.5709L41.9969 28.0559L42.0041 28.0577L42.0113 28.0593L42.1182 27.5709ZM37.0609 28.0572L37.3527 28.4632L37.3527 28.4632L37.0609 28.0572ZM38.9736 34.6244C37.2684 34.6244 35.9307 34.1844 34.9157 33.3451L34.2784 34.1157C35.5111 35.1351 37.0911 35.6244 38.9736 35.6244V34.6244ZM34.9157 33.3451C33.9097 32.5132 33.4113 31.4456 33.4113 30.0995H32.4113C32.4113 31.7359 33.0368 33.089 34.2784 34.1157L34.9157 33.3451ZM33.4113 30.0995C33.4113 28.6922 33.9382 27.6235 34.9932 26.8371L34.3955 26.0353C33.0731 27.0212 32.4113 28.3947 32.4113 30.0995H33.4113ZM34.9978 26.8336C36.0712 26.0139 37.5828 25.5746 39.5895 25.5746V24.5746C37.4468 24.5746 35.6949 25.0431 34.3909 26.0388L34.9978 26.8336ZM39.5895 25.5746C40.3529 25.5746 41.0935 25.6571 41.8123 25.8214L42.0351 24.8466C41.241 24.6651 40.4255 24.5746 39.5895 24.5746V25.5746ZM41.8256 25.8243C42.5523 25.9696 43.246 26.1769 43.9075 26.4456L44.2839 25.5191C43.5622 25.2259 42.808 25.0009 42.0217 24.8437L41.8256 25.8243ZM44.5957 25.9824V24.2318H43.5957V25.9824H44.5957ZM44.5957 24.2318C44.5957 22.9632 44.2159 21.9283 43.3808 21.2237L42.7359 21.988C43.284 22.4505 43.5957 23.1661 43.5957 24.2318H44.5957ZM43.3808 21.2237C42.5669 20.537 41.4404 20.2305 40.0758 20.2305V21.2305C41.3047 21.2305 42.1666 21.5076 42.7359 21.988L43.3808 21.2237ZM40.0758 20.2305C39.2667 20.2305 38.4309 20.3577 37.5702 20.6069L37.8483 21.5674C38.6302 21.3411 39.3721 21.2305 40.0758 21.2305V20.2305ZM37.582 20.6036C36.7241 20.8294 35.7767 21.1873 34.7417 21.6717L35.1657 22.5774C36.1623 22.1109 37.0519 21.7772 37.8365 21.5707L37.582 20.6036ZM35.4021 21.9033L34.2026 19.4719L33.3058 19.9144L34.5053 22.3458L35.4021 21.9033ZM33.9682 20.145C35.1745 19.5736 36.3081 19.1654 37.3699 18.9155L37.1409 17.9421C35.9982 18.211 34.7977 18.6456 33.5401 19.2413L33.9682 20.145ZM37.3789 18.9133C38.4429 18.6421 39.4928 18.5074 40.5297 18.5074V17.5074C39.4053 17.5074 38.2724 17.6536 37.1319 17.9443L37.3789 18.9133ZM40.5297 18.5074C42.5924 18.5074 44.1111 19.007 45.1575 19.9372L45.8219 19.1898C44.5342 18.0451 42.7462 17.5074 40.5297 17.5074V18.5074ZM45.1649 19.9436C46.2199 20.8451 46.7728 22.141 46.7728 23.9076H47.7728C47.7728 21.9136 47.1369 20.3134 45.8146 19.1834L45.1649 19.9436ZM46.7728 23.9076V34.8326H47.7728V23.9076H46.7728ZM47.2728 34.3326H44.0957V35.3326H47.2728V34.3326ZM44.5957 34.8326V33.4062H43.5957V34.8326H44.5957ZM43.7848 33.0147C43.0931 33.564 42.3555 33.9671 41.5711 34.2286L41.8873 35.1773C42.7886 34.8769 43.6287 34.4156 44.4067 33.7978L43.7848 33.0147ZM41.5711 34.2286C40.7848 34.4907 39.9203 34.6244 38.9736 34.6244V35.6244C40.0152 35.6244 40.9877 35.4772 41.8873 35.1773L41.5711 34.2286ZM35.5235 30.0347C35.5235 31.0005 35.9399 31.7947 36.7305 32.3814L37.3264 31.5783C36.7771 31.1707 36.5235 30.6682 36.5235 30.0347H35.5235ZM36.7367 32.3858C37.5352 32.9598 38.543 33.2254 39.7192 33.2254V32.2254C38.6909 32.2254 37.9049 31.994 37.3203 31.5738L36.7367 32.3858ZM39.7192 33.2254C40.6342 33.2254 41.4908 33.0881 42.2846 32.8079L41.9518 31.8649C41.2759 32.1034 40.5332 32.2254 39.7192 32.2254V33.2254ZM42.2846 32.8079C43.0806 32.527 43.7961 32.1047 44.4279 31.543L43.7635 30.7956C43.2283 31.2714 42.6254 31.6272 41.9518 31.8649L42.2846 32.8079ZM44.5957 31.1693V28.3165H43.5957V31.1693H44.5957ZM44.3373 27.8787C43.6688 27.5099 42.9643 27.2441 42.225 27.0824L42.0113 28.0593C42.6553 28.2002 43.2692 28.4315 43.8542 28.7543L44.3373 27.8787ZM42.2395 27.0858C41.5027 26.9016 40.705 26.8115 39.8489 26.8115V27.8115C40.6353 27.8115 41.3505 27.8943 41.9969 28.0559L42.2395 27.0858ZM39.8489 26.8115C38.6151 26.8115 37.572 27.074 36.7691 27.6511L37.3527 28.4632C37.9329 28.0461 38.7486 27.8115 39.8489 27.8115V26.8115ZM36.7691 27.6511C35.9525 28.2381 35.5235 29.0455 35.5235 30.0347H36.5235C36.5235 29.3813 36.7861 28.8704 37.3527 28.4632L36.7691 27.6511ZM63.6515 34.8326H63.1515V35.3326H63.6515V34.8326ZM63.6515 33.2765H64.1515V32.2005L63.3291 32.8944L63.6515 33.2765ZM61.3174 34.6381L61.4826 35.1102L61.4929 35.1063L61.3174 34.6381ZM55.3199 34.4436L55.1159 34.9002L55.1241 34.9037L55.3199 34.4436ZM52.6616 32.6282L52.3029 32.9766L52.308 32.9817L52.6616 32.6282ZM50.911 29.9374L50.448 30.1264L50.4494 30.1297L50.911 29.9374ZM50.911 23.2268L50.4494 23.0345L50.4494 23.0345L50.911 23.2268ZM52.6616 20.536L52.308 20.1824L52.303 20.1876L52.6616 20.536ZM55.3523 18.753L55.5447 19.2146L55.5527 19.2111L55.3523 18.753ZM61.2849 18.4937L61.1268 18.968L61.1268 18.968L61.2849 18.4937ZM63.6191 19.6931L63.325 20.0975L64.1191 20.675V19.6931H63.6191ZM63.6191 12.1396L63.5117 11.6513L63.1191 11.7377V12.1396H63.6191ZM66.8609 11.4264H67.3609V10.8044L66.7535 10.9381L66.8609 11.4264ZM66.8609 34.8326V35.3326H67.3609V34.8326H66.8609ZM55.0606 30.6182L55.4176 30.2682L55.4176 30.2682L55.0606 30.6182ZM61.6091 31.7529L61.4107 31.2939L61.4061 31.296L61.6091 31.7529ZM63.6191 30.294L63.9978 30.6205L64.1191 30.4798V30.294H63.6191ZM63.6191 22.8053H64.1191V22.6146L63.9921 22.4723L63.6191 22.8053ZM55.0606 22.4811L55.4141 22.8347L55.4141 22.8347L55.0606 22.4811ZM64.1515 34.8326V33.2765H63.1515V34.8326H64.1515ZM63.3291 32.8944C62.682 33.4403 61.9539 33.8654 61.1418 34.17L61.4929 35.1063C62.4098 34.7625 63.2378 34.2798 63.9739 33.6587L63.3291 32.8944ZM61.1522 34.1662C60.3428 34.4495 59.4911 34.592 58.5942 34.592V35.592C59.5992 35.592 60.5629 35.4319 61.4825 35.1101L61.1522 34.1662ZM58.5942 34.592C57.4905 34.592 56.4661 34.388 55.5157 33.9835L55.1241 34.9037C56.2053 35.3638 57.3638 35.592 58.5942 35.592V34.592ZM55.5239 33.9871C54.5616 33.5571 53.7267 32.9862 53.0151 32.2746L52.308 32.9817C53.1094 33.783 54.0467 34.4224 55.1159 34.9001L55.5239 33.9871ZM53.0202 32.2798C52.332 31.5713 51.7822 30.7283 51.3725 29.7451L50.4494 30.1297C50.9043 31.2213 51.5215 32.1721 52.303 32.9766L53.0202 32.2798ZM51.3739 29.7485C50.9671 28.7518 50.7626 27.6924 50.7626 26.5659H49.7626C49.7626 27.8168 49.9904 29.005 50.4481 30.1264L51.3739 29.7485ZM50.7626 26.5659C50.7626 25.4394 50.9671 24.3921 51.3725 23.4191L50.4494 23.0345C49.9904 24.1363 49.7626 25.3151 49.7626 26.5659H50.7626ZM51.3725 23.4191C51.7822 22.4359 52.332 21.5929 53.0202 20.8844L52.303 20.1876C51.5215 20.9921 50.9043 21.9429 50.4494 23.0345L51.3725 23.4191ZM53.0151 20.8896C53.7231 20.1816 54.5644 19.623 55.5446 19.2145L55.16 18.2915C54.0654 18.7475 53.113 19.3775 52.308 20.1825L53.0151 20.8896ZM55.5527 19.2111C56.525 18.7857 57.5588 18.5722 58.659 18.5722V17.5722C57.4252 17.5722 56.2545 17.8126 55.1519 18.2949L55.5527 19.2111ZM58.659 18.5722C59.5142 18.5722 60.336 18.7044 61.1268 18.968L61.4431 18.0193C60.5481 17.721 59.6193 17.5722 58.659 17.5722V18.5722ZM61.1268 18.968C61.9214 19.2329 62.6536 19.6092 63.325 20.0975L63.9132 19.2888C63.1582 18.7397 62.3342 18.3164 61.4431 18.0193L61.1268 18.968ZM64.1191 19.6931V12.1396H63.1191V19.6931H64.1191ZM63.7265 12.6279L66.9684 11.9147L66.7535 10.9381L63.5117 11.6513L63.7265 12.6279ZM66.3609 11.4264V34.8326H67.3609V11.4264H66.3609ZM66.8609 34.3326H63.6515V35.3326H66.8609V34.3326ZM52.9396 26.5335C52.9396 28.278 53.5263 29.7675 54.7035 30.9683L55.4176 30.2682C54.4336 29.2645 53.9396 28.0308 53.9396 26.5335H52.9396ZM54.7035 30.9683C55.8805 32.1688 57.3394 32.7716 59.0481 32.7716V31.7716C57.6013 31.7716 56.4019 31.2721 55.4176 30.2682L54.7035 30.9683ZM59.0481 32.7716C60.0409 32.7716 60.9646 32.5865 61.8122 32.2098L61.4061 31.296C60.6976 31.6108 59.9139 31.7716 59.0481 31.7716V32.7716ZM61.8076 32.2118C62.6728 31.8377 63.4056 31.3075 63.9978 30.6205L63.2404 29.9676C62.752 30.5341 62.1448 30.9765 61.4107 31.2939L61.8076 32.2118ZM64.1191 30.294V22.8053H63.1191V30.294H64.1191ZM63.9921 22.4723C63.3999 21.8091 62.6689 21.2924 61.8076 20.92L61.4107 21.8378C62.1487 22.157 62.7577 22.5913 63.2461 23.1383L63.9921 22.4723ZM61.8076 20.92C60.9426 20.546 60.0211 20.3602 59.0481 20.3602V21.3602C59.8904 21.3602 60.6763 21.5203 61.4107 21.8378L61.8076 20.92ZM59.0481 20.3602C57.3425 20.3602 55.8847 20.9499 54.707 22.1276L55.4141 22.8347C56.3976 21.8512 57.5982 21.3602 59.0481 21.3602V20.3602ZM54.707 22.1276C53.5265 23.3081 52.9396 24.7889 52.9396 26.5335H53.9396C53.9396 25.0362 54.4334 23.8154 55.4141 22.8347L54.707 22.1276ZM70.9269 15.0897L70.5638 15.4337L70.5734 15.4433L70.9269 15.0897ZM70.9269 12.2693L71.2806 12.623L71.2899 12.6132L70.9269 12.2693ZM73.7149 12.2693L73.352 12.6132L73.3613 12.623L73.3711 12.6323L73.7149 12.2693ZM73.7149 15.0897L74.0685 15.4433L73.7149 15.0897ZM68.2362 41.6081L68.3023 41.1125L68.2982 41.112L68.2362 41.6081ZM67.3933 41.446H66.8933V41.8181L67.2496 41.925L67.3933 41.446ZM67.3933 38.8525L67.4914 38.3623L66.8933 38.2426V38.8525H67.3933ZM70.2137 38.4959L69.8726 38.1304L69.86 38.1422L69.8482 38.1548L70.2137 38.4959ZM70.7 18.3316V17.8316H70.2V18.3316H70.7ZM73.9419 18.3316H74.4419V17.8316H73.9419V18.3316ZM72.3209 15.1732C71.9159 15.1732 71.5777 15.0333 71.2805 14.7362L70.5734 15.4433C71.0543 15.9241 71.6453 16.1732 72.3209 16.1732V15.1732ZM71.2899 14.7458C70.9843 14.4233 70.8434 14.0692 70.8434 13.6633H69.8434C69.8434 14.338 70.0915 14.9349 70.564 15.4336L71.2899 14.7458ZM70.8434 13.6633C70.8434 13.2583 70.9833 12.92 71.2805 12.6228L70.5734 11.9157C70.0925 12.3966 69.8434 12.9877 69.8434 13.6633H70.8434ZM71.2899 12.6132C71.5895 12.2969 71.925 12.1533 72.3209 12.1533V11.1533C71.6363 11.1533 71.0424 11.4204 70.564 11.9254L71.2899 12.6132ZM72.3209 12.1533C72.7169 12.1533 73.0524 12.2969 73.352 12.6132L74.0779 11.9254C73.5994 11.4204 73.0056 11.1533 72.3209 11.1533V12.1533ZM73.3711 12.6323C73.6873 12.9318 73.8309 13.2673 73.8309 13.6633H74.8309C74.8309 12.9786 74.5639 12.3848 74.0588 11.9063L73.3711 12.6323ZM73.8309 13.6633C73.8309 14.0604 73.686 14.4115 73.3614 14.7362L74.0685 15.4433C74.5651 14.9466 74.8309 14.3468 74.8309 13.6633H73.8309ZM73.3614 14.7362C73.0642 15.0333 72.726 15.1732 72.3209 15.1732V16.1732C72.9966 16.1732 73.5876 15.9241 74.0685 15.4433L73.3614 14.7362ZM69.2412 41.173C68.9162 41.173 68.6034 41.1527 68.3023 41.1125L68.1701 42.1037C68.5174 42.1501 68.8745 42.173 69.2412 42.173V41.173ZM68.2982 41.112C67.9669 41.0706 67.7162 41.0209 67.537 40.9671L67.2496 41.925C67.5027 42.0009 67.8139 42.0592 68.1742 42.1043L68.2982 41.112ZM67.8933 41.446V38.8525H66.8933V41.446H67.8933ZM67.2953 39.3428C67.5238 39.3886 67.7435 39.4234 67.9541 39.4467L68.0645 38.4529C67.886 38.433 67.6951 38.403 67.4914 38.3623L67.2953 39.3428ZM67.9541 39.4467C68.1717 39.4709 68.4178 39.4822 68.6901 39.4822V38.4822C68.4436 38.4822 68.2359 38.4719 68.0645 38.4529L67.9541 39.4467ZM68.6901 39.4822C69.46 39.4822 70.1379 39.31 70.5793 38.8371L69.8482 38.1548C69.6844 38.3303 69.3465 38.4822 68.6901 38.4822V39.4822ZM70.5549 38.8615C71.0277 38.4201 71.2 37.7423 71.2 36.9723H70.2C70.2 37.6287 70.0481 37.9666 69.8726 38.1304L70.5549 38.8615ZM71.2 36.9723V18.3316H70.2V36.9723H71.2ZM70.7 18.8316H73.9419V17.8316H70.7V18.8316ZM73.4419 18.3316V37.1992H74.4419V18.3316H73.4419ZM73.4419 37.1992C73.4419 38.5264 73.0631 39.4826 72.3661 40.1429L73.0538 40.8689C73.9994 39.9731 74.4419 38.7249 74.4419 37.1992H73.4419ZM72.3661 40.1429C71.6642 40.8079 70.6464 41.173 69.2412 41.173V42.173C70.8185 42.173 72.1132 41.76 73.0538 40.8689L72.3661 40.1429ZM92.0565 32.9524L92.3623 33.348L92.8154 32.9978L92.4073 32.596L92.0565 32.9524ZM89.074 34.6057L89.2322 35.0801L89.2409 35.077L89.074 34.6057ZM82.2661 34.476L82.0691 34.9357L82.0772 34.939L82.2661 34.476ZM79.5105 32.6606L79.162 33.0191L79.162 33.0191L79.5105 32.6606ZM77.6627 29.9698L77.1996 30.1589L77.2046 30.1703L77.6627 29.9698ZM77.6627 23.2268L77.2011 23.0345L77.2011 23.0345L77.6627 23.2268ZM79.4133 20.536L79.0546 20.1876L79.4133 20.536ZM82.0392 18.753L82.235 19.2132L82.2432 19.2095L82.0392 18.753ZM88.4257 18.753L88.2141 19.2063L88.2263 19.2115L88.4257 18.753ZM90.9543 20.5685L90.5806 20.9006L90.5855 20.9061L90.5905 20.9115L90.9543 20.5685ZM92.6401 23.2916L92.1739 23.4724L92.1739 23.4724L92.6401 23.2916ZM93.256 27.6357V28.1357H93.756V27.6357H93.256ZM80.2237 27.6357V27.1357H79.6381L79.7299 27.7141L80.2237 27.6357ZM82.104 31.0397L81.7747 31.416L81.7793 31.4199L82.104 31.0397ZM88.1015 31.9798L87.9351 31.5083L87.9351 31.5083L88.1015 31.9798ZM89.9817 30.91L90.3325 30.5537L90.0018 30.2281L89.6525 30.5337L89.9817 30.91ZM81.9743 22.0273L81.6432 21.6526L81.6389 21.6565L81.9743 22.0273ZM80.2562 25.2043L79.7644 25.1141L79.6562 25.7043H80.2562V25.2043ZM90.0466 25.2043V25.7043H90.6503L90.5378 25.1111L90.0466 25.2043ZM88.3284 22.0597L87.9838 22.422L87.9882 22.4261L88.3284 22.0597ZM91.7508 32.5567C90.838 33.2621 89.8901 33.7862 88.9071 34.1344L89.2409 35.077C90.3327 34.6904 91.3732 34.1123 92.3623 33.348L91.7508 32.5567ZM88.9159 34.1314C87.9355 34.4582 86.855 34.6244 85.6701 34.6244V35.6244C86.949 35.6244 88.1378 35.4448 89.2321 35.0801L88.9159 34.1314ZM85.6701 34.6244C84.5207 34.6244 83.4506 34.4195 82.4551 34.0131L82.0772 34.939C83.1996 35.3971 84.3988 35.6244 85.6701 35.6244V34.6244ZM82.4631 34.0165C81.4568 33.5852 80.5906 33.0133 79.8591 32.3021L79.162 33.0191C79.9866 33.8208 80.9574 34.4591 82.0692 34.9356L82.4631 34.0165ZM79.8591 32.3021C79.1294 31.5927 78.5498 30.7502 78.1208 29.7694L77.2046 30.1703C77.6832 31.2643 78.3355 32.2156 79.162 33.0191L79.8591 32.3021ZM78.1256 29.7809C77.7192 28.7853 77.5143 27.7152 77.5143 26.5659H76.5143C76.5143 27.8372 76.7416 29.0364 77.1997 30.1588L78.1256 29.7809ZM77.5143 26.5659C77.5143 25.4394 77.7188 24.3921 78.1242 23.4191L77.2011 23.0345C76.742 24.1363 76.5143 25.3151 76.5143 26.5659H77.5143ZM78.1242 23.4191C78.5339 22.4359 79.0837 21.5929 79.7719 20.8844L79.0546 20.1876C78.2732 20.9921 77.656 21.9429 77.2011 23.0345L78.1242 23.4191ZM79.7719 20.8844C80.4583 20.1779 81.2774 19.6205 82.235 19.2131L81.8434 18.2929C80.7694 18.75 79.8379 19.3813 79.0546 20.1876L79.7719 20.8844ZM82.2432 19.2095C83.1928 18.7852 84.2037 18.5722 85.281 18.5722V17.5722C84.0674 17.5722 82.9171 17.8131 81.8352 18.2965L82.2432 19.2095ZM85.281 18.5722C86.3354 18.5722 87.311 18.7846 88.2142 19.2061L88.6371 18.2999C87.5952 17.8137 86.4744 17.5722 85.281 17.5722V18.5722ZM88.2263 19.2115C89.1567 19.6161 89.9393 20.1791 90.5806 20.9006L91.328 20.2363C90.5862 19.4017 89.683 18.7544 88.625 18.2945L88.2263 19.2115ZM90.5905 20.9115C91.2555 21.6167 91.7844 22.468 92.1739 23.4724L93.1063 23.1109C92.6744 21.9973 92.0795 21.033 91.3181 20.2254L90.5905 20.9115ZM92.1739 23.4724C92.5607 24.47 92.756 25.543 92.756 26.6956H93.756C93.756 25.4275 93.5407 24.2312 93.1063 23.1109L92.1739 23.4724ZM92.756 26.6956V27.6357H93.756V26.6956H92.756ZM93.256 27.1357H80.2237V28.1357H93.256V27.1357ZM79.7299 27.7141C79.9644 29.1911 80.6494 30.4312 81.7748 31.416L82.4333 30.6634C81.4839 29.8327 80.9154 28.8034 80.7176 27.5573L79.7299 27.7141ZM81.7793 31.4199C82.9116 32.387 84.2602 32.8688 85.7997 32.8688V31.8688C84.4865 31.8688 83.3712 31.4645 82.4288 30.6595L81.7793 31.4199ZM85.7997 32.8688C86.6546 32.8688 87.4782 32.73 88.2679 32.4513L87.9351 31.5083C87.2551 31.7483 86.5442 31.8688 85.7997 31.8688V32.8688ZM88.2679 32.4513C89.0548 32.1736 89.7387 31.787 90.311 31.2863L89.6525 30.5337C89.1874 30.9407 88.6178 31.2673 87.9351 31.5083L88.2679 32.4513ZM89.631 31.2663L91.7058 33.3087L92.4073 32.596L90.3325 30.5537L89.631 31.2663ZM85.2162 20.2954C83.8614 20.2954 82.6633 20.7512 81.6432 21.6526L82.3054 22.402C83.1441 21.6608 84.1072 21.2954 85.2162 21.2954V20.2954ZM81.6389 21.6565C80.6432 22.5574 80.0203 23.7181 79.7644 25.1141L80.748 25.2945C80.9675 24.097 81.4901 23.1397 82.3098 22.3981L81.6389 21.6565ZM80.2562 25.7043H90.0466V24.7043H80.2562V25.7043ZM90.5378 25.1111C90.2808 23.7561 89.657 22.6111 88.6686 21.6933L87.9882 22.4261C88.8152 23.1941 89.3369 24.1454 89.5553 25.2975L90.5378 25.1111ZM88.673 21.6974C87.6969 20.769 86.5372 20.2954 85.2162 20.2954V21.2954C86.2726 21.2954 87.1877 21.6647 87.9838 22.422L88.673 21.6974ZM97.8501 21.0547H98.3501V20.5547H97.8501V21.0547ZM94.3489 21.0547H93.8489V21.5547H94.3489V21.0547ZM94.3489 18.3316V17.8316H93.8489V18.3316H94.3489ZM97.8501 18.3316V18.8316H98.3501V18.3316H97.8501ZM97.8501 14.1171L97.7323 13.6312L97.3501 13.7239V14.1171H97.8501ZM101.06 13.3391H101.56V12.7034L100.942 12.8532L101.06 13.3391ZM101.06 18.3316H100.56V18.8316H101.06V18.3316ZM105.922 18.3316H106.422V17.8316H105.922V18.3316ZM105.922 21.0547V21.5547H106.422V21.0547H105.922ZM101.06 21.0547V20.5547H100.56V21.0547H101.06ZM101.611 31.7853L101.268 32.1494L101.273 32.1543L101.278 32.159L101.611 31.7853ZM104.69 32.2392L104.752 32.7353L104.765 32.7337L104.777 32.7315L104.69 32.2392ZM105.857 31.915H106.357V31.1979L105.685 31.4458L105.857 31.915ZM105.857 34.6381L106.023 35.1101L106.357 34.9929V34.6381H105.857ZM104.334 34.9947L104.261 34.5001L104.258 34.5005L104.334 34.9947ZM99.1144 34.0222L98.7804 34.3943L98.7859 34.3991L99.1144 34.0222ZM98.3501 30.7479V21.0547H97.3501V30.7479H98.3501ZM97.8501 20.5547H94.3489V21.5547H97.8501V20.5547ZM94.8489 21.0547V18.3316H93.8489V21.0547H94.8489ZM94.3489 18.8316H97.8501V17.8316H94.3489V18.8316ZM98.3501 18.3316V14.1171H97.3501V18.3316H98.3501ZM97.9679 14.6031L101.177 13.825L100.942 12.8532L97.7323 13.6312L97.9679 14.6031ZM100.56 13.3391V18.3316H101.56V13.3391H100.56ZM101.06 18.8316H105.922V17.8316H101.06V18.8316ZM105.422 18.3316V21.0547H106.422V18.3316H105.422ZM105.922 20.5547H101.06V21.5547H105.922V20.5547ZM100.56 21.0547V30.0023H101.56V21.0547H100.56ZM100.56 30.0023C100.56 30.8949 100.75 31.6621 101.268 32.1494L101.953 31.4212C101.736 31.2168 101.56 30.7954 101.56 30.0023H100.56ZM101.278 32.159C101.803 32.6252 102.579 32.804 103.491 32.804V31.804C102.674 31.804 102.196 31.637 101.943 31.4116L101.278 32.159ZM103.491 32.804C103.96 32.804 104.381 32.7817 104.752 32.7353L104.628 31.743C104.308 31.783 103.93 31.804 103.491 31.804V32.804ZM104.777 32.7315C105.179 32.6607 105.596 32.544 106.03 32.3841L105.685 31.4458C105.297 31.5885 104.937 31.6879 104.604 31.7468L104.777 32.7315ZM105.357 31.915V34.6381H106.357V31.915H105.357ZM105.692 34.1662C105.297 34.3046 104.821 34.4171 104.261 34.5001L104.407 35.4893C105.013 35.3995 105.553 35.2743 106.023 35.1101L105.692 34.1662ZM104.258 34.5005C103.716 34.5839 103.223 34.6244 102.778 34.6244V35.6244C103.283 35.6244 103.827 35.5785 104.41 35.4889L104.258 34.5005ZM102.778 34.6244C101.248 34.6244 100.162 34.2725 99.443 33.6453L98.7859 34.3991C99.7522 35.2415 101.109 35.6244 102.778 35.6244V34.6244ZM99.4484 33.6501C98.7374 33.012 98.3501 32.0718 98.3501 30.7479H97.3501C97.3501 32.2768 97.8057 33.5195 98.7805 34.3943L99.4484 33.6501Z" fill="#228B22"/>
<path d="M112.754 15.5738C112.754 8.69285 118.332 3.11475 125.213 3.11475H215.541C222.422 3.11475 228 8.69284 228 15.5738V32.3934C228 39.2743 222.422 44.8525 215.541 44.8525H125.213C118.332 44.8525 112.754 39.2744 112.754 32.3934V15.5738Z" fill="#FF5800"/>
<path d="M130.203 36V11.3751H133.896V36H130.203ZM144.276 36L136.536 18.0942H140.406L145.999 31.4972L151.593 18.0942H155.357L147.618 36H144.276ZM156.042 27.0295C156.042 25.7396 156.277 24.5318 156.746 23.4061C157.238 22.257 157.907 21.272 158.751 20.4511C159.595 19.6069 160.58 18.9502 161.706 18.4812C162.855 17.9887 164.075 17.7424 165.365 17.7424C166.654 17.7424 167.862 17.9887 168.988 18.4812C170.137 18.9502 171.122 19.6069 171.943 20.4511C172.787 21.272 173.444 22.257 173.913 23.4061C174.405 24.5318 174.652 25.7396 174.652 27.0295C174.652 28.3428 174.405 29.5741 173.913 30.7232C173.444 31.8489 172.787 32.8339 171.943 33.6782C171.122 34.4991 170.137 35.1557 168.988 35.6482C167.862 36.1173 166.654 36.3518 165.365 36.3518C164.075 36.3518 162.855 36.1173 161.706 35.6482C160.58 35.1557 159.595 34.4991 158.751 33.6782C157.907 32.8339 157.238 31.8489 156.746 30.7232C156.277 29.5741 156.042 28.3428 156.042 27.0295ZM165.365 33.2561C166.983 33.2561 168.355 32.6581 169.48 31.462C170.63 30.2425 171.204 28.765 171.204 27.0295C171.204 25.294 170.63 23.8283 169.48 22.6322C168.355 21.4361 166.983 20.8381 165.365 20.8381C163.746 20.8381 162.363 21.4361 161.213 22.6322C160.064 23.8283 159.49 25.294 159.49 27.0295C159.49 28.765 160.053 30.2425 161.178 31.462C162.327 32.6581 163.723 33.2561 165.365 33.2561ZM179.738 15.2096C179.152 15.2096 178.647 14.9985 178.225 14.5763C177.803 14.1308 177.592 13.6148 177.592 13.0285C177.592 12.4422 177.803 11.938 178.225 11.5158C178.647 11.0702 179.152 10.8474 179.738 10.8474C180.324 10.8474 180.828 11.0702 181.251 11.5158C181.696 11.938 181.919 12.4422 181.919 13.0285C181.919 13.6148 181.696 14.1308 181.251 14.5763C180.828 14.9985 180.324 15.2096 179.738 15.2096ZM181.497 18.0942V36H177.979V18.0942H181.497ZM185.64 36V18.0942H189.158V20.3808C189.697 19.5131 190.389 18.8564 191.233 18.4108C192.078 17.9418 193.027 17.7072 194.083 17.7072C194.458 17.7072 194.786 17.7307 195.068 17.7776C195.349 17.8245 195.619 17.8948 195.877 17.9887V21.1547C195.548 21.0375 195.208 20.9436 194.857 20.8733C194.505 20.8029 194.153 20.7677 193.801 20.7677C192.769 20.7677 191.843 21.0492 191.022 21.612C190.225 22.1514 189.603 22.9605 189.158 24.0393V36H185.64ZM213.109 33.9597C212.077 34.757 210.998 35.3551 209.872 35.7538C208.747 36.129 207.515 36.3166 206.179 36.3166C204.865 36.3166 203.634 36.0821 202.485 35.613C201.336 35.1205 200.339 34.4639 199.495 33.643C198.65 32.8222 197.982 31.8489 197.49 30.7232C197.02 29.5741 196.786 28.3428 196.786 27.0295C196.786 25.7396 197.02 24.5318 197.49 23.4061C197.959 22.2804 198.592 21.3072 199.389 20.4863C200.187 19.6655 201.136 19.0206 202.239 18.5515C203.341 18.059 204.513 17.8128 205.756 17.8128C206.976 17.8128 208.113 18.059 209.169 18.5515C210.248 19.0206 211.162 19.6772 211.913 20.5215C212.687 21.3423 213.296 22.3273 213.742 23.4765C214.188 24.6256 214.41 25.8569 214.41 27.1702V28.1904H200.269C200.503 29.6679 201.183 30.8991 202.309 31.8841C203.435 32.8457 204.771 33.3264 206.319 33.3264C207.187 33.3264 208.02 33.1857 208.817 32.9043C209.614 32.6229 210.294 32.2359 210.857 31.7434L213.109 33.9597ZM205.686 20.7677C204.349 20.7677 203.177 21.2133 202.168 22.1045C201.183 22.9957 200.562 24.1449 200.304 25.552H210.928C210.67 24.1918 210.048 23.0543 209.063 22.1397C208.102 21.2251 206.976 20.7677 205.686 20.7677Z" fill="white"/>
</svg>
