<svg width="19" height="17" viewBox="0 0 19 17" fill="none" xmlns="http://www.w3.org/2000/svg">
<path d="M1.8022 1.85455H4.5055L6.30769 0H11.7143L13.5165 1.85455H16.2198C16.6978 1.85455 17.1562 2.04993 17.4941 2.39773C17.8321 2.74552 18.022 3.21724 18.022 3.70909V14.8364C18.022 15.3282 17.8321 15.7999 17.4941 16.1477C17.1562 16.4955 16.6978 16.6909 16.2198 16.6909H1.8022C1.32423 16.6909 0.865829 16.4955 0.527852 16.1477C0.189874 15.7999 0 15.3282 0 14.8364V3.70909C0 3.21724 0.189874 2.74552 0.527852 2.39773C0.865829 2.04993 1.32423 1.85455 1.8022 1.85455V1.85455ZM9.01099 4.63636C7.81606 4.63636 6.67007 5.12484 5.82512 5.99432C4.98018 6.86381 4.5055 8.04309 4.5055 9.27273C4.5055 10.5024 4.98018 11.6816 5.82512 12.5511C6.67007 13.4206 7.81606 13.9091 9.01099 13.9091C10.2059 13.9091 11.3519 13.4206 12.1969 12.5511C13.0418 11.6816 13.5165 10.5024 13.5165 9.27273C13.5165 8.04309 13.0418 6.86381 12.1969 5.99432C11.3519 5.12484 10.2059 4.63636 9.01099 4.63636V4.63636ZM9.01099 6.49091C9.72795 6.49091 10.4155 6.78399 10.9225 7.30568C11.4295 7.82738 11.7143 8.53494 11.7143 9.27273C11.7143 10.0105 11.4295 10.7181 10.9225 11.2398C10.4155 11.7615 9.72795 12.0545 9.01099 12.0545C8.29403 12.0545 7.60644 11.7615 7.09947 11.2398C6.5925 10.7181 6.30769 10.0105 6.30769 9.27273C6.30769 8.53494 6.5925 7.82738 7.09947 7.30568C7.60644 6.78399 8.29403 6.49091 9.01099 6.49091V6.49091Z" fill="#474647"/>
</svg>
