<svg width="15" height="18" viewBox="0 0 15 18" fill="none" xmlns="http://www.w3.org/2000/svg">
<path d="M12.6154 5.4H10.8132V1.8H12.6154V5.4ZM9.91209 5.4H8.10989V1.8H9.91209V5.4ZM7.20879 5.4H5.40659V1.8H7.20879V5.4ZM12.6154 0H5.40659L0 5.4V16.2C0 16.6774 0.189874 17.1352 0.527851 17.4728C0.865829 17.8104 1.32422 18 1.8022 18H12.6154C13.0934 18 13.5518 17.8104 13.8897 17.4728C14.2277 17.1352 14.4176 16.6774 14.4176 16.2V1.8C14.4176 1.32261 14.2277 0.864773 13.8897 0.527208C13.5518 0.189642 13.0934 0 12.6154 0Z" fill="#474647"/>
</svg>
