<svg width="19" height="20" viewBox="0 0 19 20" fill="none" xmlns="http://www.w3.org/2000/svg">
<path d="M3.88636 0C6.04545 0 7.77273 1.81818 7.77273 4.09091C7.77273 4.89091 7.55682 5.63636 7.17682 6.27273L7.26318 6.36364H11.7368L11.8232 6.27273C11.4432 5.63636 11.2273 4.89091 11.2273 4.09091C11.2273 1.81818 12.9545 0 15.1136 0C17.2727 0 19 1.81818 19 4.09091C19 6.36364 17.2727 8.18182 15.1136 8.18182C14.3536 8.18182 13.6455 7.95455 13.0409 7.55455L12.0909 8.55455V11.4455L13.0409 12.4455C13.6455 12.0455 14.3536 11.8182 15.1136 11.8182C17.2727 11.8182 19 13.6364 19 15.9091C19 18.1818 17.2727 20 15.1136 20C12.9545 20 11.2273 18.1818 11.2273 15.9091C11.2273 15.1091 11.4432 14.3636 11.8232 13.7273L11.7368 13.6364H7.26318L7.17682 13.7273C7.55682 14.3636 7.77273 15.1091 7.77273 15.9091C7.77273 18.1818 6.04545 20 3.88636 20C1.72727 20 0 18.1818 0 15.9091C0 13.6364 1.72727 11.8182 3.88636 11.8182C4.64636 11.8182 5.35455 12.0455 5.95909 12.4455L6.90909 11.4455V8.55455L5.95909 7.55455C5.35455 7.95455 4.64636 8.18182 3.88636 8.18182C1.72727 8.18182 0 6.36364 0 4.09091C0 1.81818 1.72727 0 3.88636 0ZM3.88636 1.81818C3.31374 1.81818 2.76456 2.05763 2.35966 2.48385C1.95475 2.91007 1.72727 3.48814 1.72727 4.09091C1.72727 4.69367 1.95475 5.27175 2.35966 5.69797C2.76456 6.12419 3.31374 6.36364 3.88636 6.36364C4.45899 6.36364 5.00816 6.12419 5.41307 5.69797C5.81798 5.27175 6.04545 4.69367 6.04545 4.09091C6.04545 3.48814 5.81798 2.91007 5.41307 2.48385C5.00816 2.05763 4.45899 1.81818 3.88636 1.81818ZM3.88636 13.6364C3.31374 13.6364 2.76456 13.8758 2.35966 14.302C1.95475 14.7282 1.72727 15.3063 1.72727 15.9091C1.72727 16.5119 1.95475 17.0899 2.35966 17.5162C2.76456 17.9424 3.31374 18.1818 3.88636 18.1818C4.45899 18.1818 5.00816 17.9424 5.41307 17.5162C5.81798 17.0899 6.04545 16.5119 6.04545 15.9091C6.04545 15.3063 5.81798 14.7282 5.41307 14.302C5.00816 13.8758 4.45899 13.6364 3.88636 13.6364ZM15.1136 1.81818C14.541 1.81818 13.9918 2.05763 13.5869 2.48385C13.182 2.91007 12.9545 3.48814 12.9545 4.09091C12.9545 4.69367 13.182 5.27175 13.5869 5.69797C13.9918 6.12419 14.541 6.36364 15.1136 6.36364C15.6863 6.36364 16.2354 6.12419 16.6403 5.69797C17.0453 5.27175 17.2727 4.69367 17.2727 4.09091C17.2727 3.48814 17.0453 2.91007 16.6403 2.48385C16.2354 2.05763 15.6863 1.81818 15.1136 1.81818ZM15.1136 13.6364C14.541 13.6364 13.9918 13.8758 13.5869 14.302C13.182 14.7282 12.9545 15.3063 12.9545 15.9091C12.9545 16.5119 13.182 17.0899 13.5869 17.5162C13.9918 17.9424 14.541 18.1818 15.1136 18.1818C15.6863 18.1818 16.2354 17.9424 16.6403 17.5162C17.0453 17.0899 17.2727 16.5119 17.2727 15.9091C17.2727 15.3063 17.0453 14.7282 16.6403 14.302C16.2354 13.8758 15.6863 13.6364 15.1136 13.6364ZM2.51318 14.7727L3.48909 15.3727C3.60136 15.2818 3.73955 15.2273 3.88636 15.2273C4.05815 15.2273 4.2229 15.2991 4.34438 15.427C4.46585 15.5548 4.53409 15.7283 4.53409 15.9091L4.52545 16L5.50136 16.5909L5.25955 17.0455L4.28364 16.4455C4.17136 16.5364 4.03318 16.5909 3.88636 16.5909C3.71458 16.5909 3.54982 16.5191 3.42835 16.3912C3.30688 16.2633 3.23864 16.0899 3.23864 15.9091L3.24727 15.8182L2.27136 15.2273L2.51318 14.7727ZM2.27136 4.77273L3.24727 4.18182L3.23864 4.09091C3.23864 3.91008 3.30688 3.73666 3.42835 3.60879C3.54982 3.48093 3.71458 3.40909 3.88636 3.40909C4.03318 3.40909 4.17136 3.46364 4.28364 3.55455L5.25955 2.95455L5.50136 3.40909L4.52545 4L4.53409 4.09091C4.53409 4.27174 4.46585 4.44516 4.34438 4.57303C4.2229 4.70089 4.05815 4.77273 3.88636 4.77273C3.73955 4.77273 3.60136 4.71818 3.48909 4.62727L2.51318 5.22727L2.27136 4.77273ZM13.7405 2.95455L14.7164 3.55455C14.8286 3.46364 14.9668 3.40909 15.1136 3.40909C15.2854 3.40909 15.4502 3.48093 15.5716 3.60879C15.6931 3.73666 15.7614 3.91008 15.7614 4.09091L15.7527 4.18182L16.7286 4.77273L16.4868 5.22727L15.5109 4.62727C15.3986 4.71818 15.2605 4.77273 15.1136 4.77273C14.9418 4.77273 14.7771 4.70089 14.6556 4.57303C14.5342 4.44516 14.4659 4.27174 14.4659 4.09091L14.4745 4L13.4986 3.40909L13.7405 2.95455ZM13.4986 16.5909L14.4659 15.9091C14.4659 15.7283 14.5342 15.5548 14.6556 15.427C14.7771 15.2991 14.9418 15.2273 15.1136 15.2273C15.2605 15.2273 15.3986 15.2818 15.5109 15.3727L16.4868 14.7727L16.7286 15.2273L15.7614 15.9091C15.7614 16.0899 15.6931 16.2633 15.5716 16.3912C15.4502 16.5191 15.2854 16.5909 15.1136 16.5909C14.9668 16.5909 14.8286 16.5364 14.7164 16.4455L13.7405 17.0455L13.4986 16.5909Z" fill="#474647"/>
</svg>
