<svg width="19" height="18" viewBox="0 0 19 18" fill="none" xmlns="http://www.w3.org/2000/svg">
<path d="M2.12259 2H15.8894L14.9482 1H2.93358L2.12259 2ZM17.5614 2.23C17.8518 2.57 18.022 3 18.022 3.5V16C18.022 16.5304 17.811 17.0391 17.4355 17.4142C17.0599 17.7893 16.5506 18 16.0195 18H2.00244C1.47136 18 0.962032 17.7893 0.586501 17.4142C0.210971 17.0391 0 16.5304 0 16V3.5C0 3 0.170208 2.57 0.460562 2.23L1.84225 0.55C2.12259 0.21 2.53309 0 3.00366 0H15.0183C15.4889 0 15.8994 0.21 16.1697 0.55L17.5614 2.23ZM3.00366 15H9.01099V12H3.00366V15Z" fill="#474647"/>
</svg>
