<svg width="22" height="14" viewBox="0 0 22 14" fill="none" xmlns="http://www.w3.org/2000/svg">
<path d="M6 0H16C17.5913 0 19.1174 0.689609 20.2426 1.91712C21.3679 3.14463 22 4.80949 22 6.54545C22 8.28142 21.3679 9.94628 20.2426 11.1738C19.1174 12.4013 17.5913 13.0909 16 13.0909C14.22 13.0909 12.63 12.2509 11.53 10.9091H10.47C9.37 12.2509 7.78 13.0909 6 13.0909C4.4087 13.0909 2.88258 12.4013 1.75736 11.1738C0.632141 9.94628 0 8.28142 0 6.54545C0 4.80949 0.632141 3.14463 1.75736 1.91712C2.88258 0.689609 4.4087 0 6 0V0ZM5 3.27273V5.45455H3V7.63636H5V9.81818H7V7.63636H9V5.45455H7V3.27273H5ZM14.5 6.54545C14.1022 6.54545 13.7206 6.71786 13.4393 7.02473C13.158 7.33161 13 7.74783 13 8.18182C13 8.61581 13.158 9.03202 13.4393 9.3389C13.7206 9.64578 14.1022 9.81818 14.5 9.81818C14.8978 9.81818 15.2794 9.64578 15.5607 9.3389C15.842 9.03202 16 8.61581 16 8.18182C16 7.74783 15.842 7.33161 15.5607 7.02473C15.2794 6.71786 14.8978 6.54545 14.5 6.54545V6.54545ZM17.5 3.27273C17.1022 3.27273 16.7206 3.44513 16.4393 3.75201C16.158 4.05888 16 4.4751 16 4.90909C16 5.34308 16.158 5.7593 16.4393 6.06618C16.7206 6.37305 17.1022 6.54545 17.5 6.54545C17.8978 6.54545 18.2794 6.37305 18.5607 6.06618C18.842 5.7593 19 5.34308 19 4.90909C19 4.4751 18.842 4.05888 18.5607 3.75201C18.2794 3.44513 17.8978 3.27273 17.5 3.27273Z" fill="#474647"/>
</svg>
